<svg width="42" height="27" viewBox="0 0 42 27" fill="none" xmlns="http://www.w3.org/2000/svg">
<path d="M39.0053 0H3.03765C1.38404 0 0 1.24084 0 2.81112V24.1889C0 25.7192 1.34083 27 3.03765 27H38.9606C40.6591 27 41.9983 25.7176 41.9983 24.1889L42 2.81112C42 1.28083 40.6589 0 39.0053 0ZM40.436 24.147C40.436 24.8906 39.7656 25.511 38.9621 25.511H3.03738C2.23391 25.511 1.6084 24.8906 1.6084 24.1886V2.81084C1.6084 2.06728 2.27881 1.48842 3.03738 1.48842H39.005C39.8085 1.48842 40.434 2.10883 40.434 2.81084L40.436 24.147Z" fill="white"/>
<path d="M35.967 12.9012H21.7585C21.311 12.9012 20.9551 13.2322 20.9551 13.6448C20.9551 14.0589 21.3128 14.3884 21.7585 14.3884H35.967C36.4145 14.3884 36.7705 14.0574 36.7705 13.6448C36.7705 13.2307 36.4128 12.9012 35.967 12.9012Z" fill="white"/>
<path d="M31.6334 16.7868H21.7585C21.311 16.7868 20.9551 17.1178 20.9551 17.5304C20.9551 17.9445 21.3128 18.2739 21.7585 18.2739H31.6334C32.0809 18.2739 32.4368 17.9429 32.4368 17.5304C32.4368 17.1178 32.0792 16.7868 31.6334 16.7868Z" fill="white"/>
<path d="M35.967 9.05536H21.7585C21.311 9.05536 20.9551 9.38636 20.9551 9.79891C20.9551 10.2131 21.3128 10.5425 21.7585 10.5425H35.967C36.4145 10.5425 36.7705 10.2115 36.7705 9.79891C36.7273 9.38636 36.4128 9.05536 35.967 9.05536Z" fill="white"/>
<path d="M10.7232 13.4801C13.1803 13.4801 15.1917 11.6188 15.1917 9.34477C15.1917 7.07093 13.1805 5.25122 10.7232 5.25122C8.26614 5.25122 6.2998 7.11252 6.2998 9.34477C6.2998 11.577 8.26614 13.4801 10.7232 13.4801ZM10.7232 6.74005C12.3319 6.74005 13.6278 7.93933 13.6278 9.38645C13.6278 10.8751 12.3319 12.0744 10.7232 12.0744C9.11455 12.0744 7.86357 10.8751 7.86357 9.38645C7.86357 7.89774 9.11455 6.74005 10.7232 6.74005Z" fill="white"/>
<path d="M10.7228 14.0172C7.14782 14.0172 4.28809 16.7051 4.28809 20.0122V21.0052C4.28809 21.4193 4.64576 21.7487 5.09155 21.7487C5.53907 21.7487 5.89502 21.4177 5.89502 21.0052V20.0122C5.89502 17.5304 8.08426 15.4646 10.7661 15.4646C13.4479 15.4646 15.6801 17.4906 15.6801 20.0122V21.0052C15.6801 21.4193 16.0377 21.7487 16.4835 21.7487C16.931 21.7487 17.287 21.4177 17.287 21.0052V20.0122C17.2006 16.6638 14.2962 14.0172 10.7228 14.0172Z" fill="white"/>
</svg>
