<svg width="32" height="30" viewBox="0 0 32 30" fill="none" xmlns="http://www.w3.org/2000/svg">
<path d="M21.743 16.539C21.743 17.7837 20.9446 18.9043 19.7169 19.3817C18.4907 19.8577 17.08 19.5938 16.1415 18.714C15.2015 17.8342 14.9215 16.5101 15.4292 15.3606C15.9369 14.2111 17.1338 13.4611 18.4615 13.4611C19.3323 13.4611 20.1661 13.7856 20.7815 14.3625C21.3984 14.9395 21.743 15.7226 21.743 16.539ZM11.0769 15C10.4138 15 9.81538 15.375 9.56151 15.9491C9.30612 16.5245 9.44766 17.1866 9.91689 17.6265C10.3861 18.0664 11.0923 18.1976 11.7046 17.9596C12.3184 17.7217 12.7184 17.1606 12.7184 16.5389C12.7184 16.1308 12.5446 15.7385 12.2369 15.45C11.9292 15.1616 11.5123 15 11.0769 15ZM12.7185 10.3846C12.0538 10.3846 11.4554 10.7596 11.2015 11.3337C10.9477 11.9092 11.0877 12.5712 11.5569 13.0111C12.0261 13.451 12.7323 13.5823 13.3461 13.3443C13.9584 13.1063 14.3584 12.5452 14.3584 11.9236C14.3584 11.5154 14.1861 11.1231 13.8784 10.8346C13.5707 10.5462 13.1538 10.3846 12.7185 10.3846ZM31.9999 13.4611V16.5389C31.9999 17.175 31.4492 17.6928 30.7692 17.6928C30.0891 17.6928 29.5384 17.175 29.5384 16.5389V16.1538H27.0107C26.7768 18.1024 25.9568 19.9469 24.6476 21.4774L26.4369 23.1548L26.7322 22.8937V22.8923C26.9615 22.6731 27.2738 22.549 27.6015 22.549C27.9291 22.549 28.243 22.6731 28.4722 22.8923C28.9522 23.3423 28.9522 24.0721 28.4722 24.5235L26.1584 26.6928C25.9276 26.9106 25.6153 27.0317 25.2876 27.0303C24.9599 27.0375 24.6446 26.9149 24.4184 26.6928C24.1846 26.4779 24.0523 26.1836 24.0523 25.8764C24.0523 25.5692 24.1846 25.2764 24.4184 25.0616L24.6969 24.7846L22.9076 23.1072H22.9092C21.2769 24.3346 19.3092 25.1033 17.2307 25.3226V27.6923H17.6415C18.32 27.6923 18.8723 28.2086 18.8723 28.8462C18.8723 29.4837 18.32 30 17.6415 30H14.3584C13.68 30 13.1277 29.4837 13.1277 28.8462C13.1277 28.2086 13.68 27.6923 14.3584 27.6923H14.7692V25.3226C12.6908 25.1034 10.7232 24.3346 9.09076 23.1072L7.30306 24.7846L7.58152 25.0616C7.81536 25.2765 7.94767 25.5692 7.94767 25.8764C7.94767 26.1836 7.81536 26.4779 7.58152 26.6928C7.35536 26.9149 7.03998 27.0375 6.7123 27.0303C6.38461 27.0317 6.0723 26.9106 5.84155 26.6928L3.52771 24.5235C3.04769 24.0721 3.04769 23.3423 3.52771 22.8923C3.75694 22.6731 4.07078 22.549 4.39846 22.549C4.72614 22.549 5.03846 22.6731 5.26768 22.8923L5.56306 23.1533L7.3523 21.4759V21.4774C6.04308 19.9471 5.22309 18.1024 4.98923 16.1538H2.46153V16.5389C2.46153 17.175 1.91078 17.6928 1.23077 17.6928C0.550753 17.6928 0 17.175 0 16.5389V13.4611C0 12.825 0.550753 12.3072 1.23077 12.3072C1.91078 12.3072 2.46153 12.825 2.46153 13.4611V13.8462H4.98923C5.22307 11.8976 6.04308 10.0531 7.3523 8.52262L5.56306 6.84665L5.26768 7.10771C5.03845 7.3255 4.7246 7.44809 4.39846 7.44665C4.07077 7.44953 3.75693 7.32694 3.52771 7.10771C3.04769 6.65769 3.04769 5.92791 3.52771 5.47645L5.84155 3.30723C6.3231 2.85721 7.10154 2.85721 7.58156 3.30723C7.8154 3.52213 7.94771 3.81636 7.94771 4.12356C7.94771 4.43076 7.8154 4.72356 7.58156 4.93845L7.3031 5.21537L9.0908 6.89278C10.7231 5.66539 12.6908 4.89665 14.7693 4.6774V2.30769H14.3585C13.68 2.30769 13.1277 1.79136 13.1277 1.15384C13.1277 0.516331 13.68 0 14.3585 0H17.6415C18.32 0 18.8723 0.516331 18.8723 1.15384C18.8723 1.79136 18.32 2.30769 17.6415 2.30769H17.2307V4.6774C19.3092 4.89663 21.2767 5.66539 22.9092 6.89278L24.6969 5.21537L24.4184 4.93845C24.1846 4.72354 24.0523 4.43076 24.0523 4.12356C24.0523 3.81636 24.1846 3.52212 24.4184 3.30723C24.8985 2.85721 25.6769 2.85721 26.1585 3.30723L28.4723 5.47645C28.9523 5.92791 28.9523 6.65769 28.4723 7.10771C28.2431 7.32694 27.9292 7.44953 27.6015 7.44665C27.2754 7.44809 26.9615 7.3255 26.7323 7.10771L26.4369 6.84665L24.6477 8.52262C25.9569 10.0529 26.7769 11.8976 27.0108 13.8462H29.5385V13.4611C29.5385 12.825 30.0892 12.3072 30.7692 12.3072C31.4492 12.3072 31.9999 12.825 31.9999 13.4611ZM24.6153 15C24.6153 12.8582 23.7076 10.803 22.0923 9.2884C20.4769 7.77382 18.2846 6.92305 15.9999 6.92305C13.7152 6.92305 11.5231 7.77401 9.9075 9.2884C8.29195 10.8028 7.38445 12.8581 7.38445 15C7.38445 17.1419 8.29214 19.1971 9.9075 20.7116C11.5229 22.2262 13.7152 23.077 15.9999 23.077C18.283 23.0727 20.472 22.2203 22.0876 20.7073C23.7014 19.1928 24.6107 17.1404 24.6153 15Z" fill="white"/>
</svg>
