<svg id="Layer_5" data-name="Layer 5" xmlns="http://www.w3.org/2000/svg" viewBox="0 0 800 800"><defs><style>.cls-1{fill:#b95879;}</style></defs><path class="cls-1" d="M397,337.22s-4-6.81-6,9.2a80.87,80.87,0,0,0,.27,22c1.14,7.71,2.07,10.24,4.12,7.78,0,0,2.79,5.86,5.61-6.6a62.88,62.88,0,0,0,1.36-18.3C401.7,341.89,400.74,329.87,397,337.22Z"/><path class="cls-1" d="M375,340.82s-6.08-5-2.52,10.71a80.39,80.39,0,0,0,7.79,20.61c3.71,6.86,5.45,8.92,6.53,5.9,0,0,4.63,4.56,3-8.12a63,63,0,0,0-5-17.65C380.93,343.62,375.91,332.66,375,340.82Z"/><path class="cls-1" d="M355.43,351.77s-7.44-2.66,1.29,10.92a80.76,80.76,0,0,0,14.37,16.71c5.83,5.17,8.17,6.51,8.15,3.31,0,0,5.91,2.69.06-8.66a62.73,62.73,0,0,0-10.72-14.89C362,352.35,353.53,343.77,355.43,351.77Z"/><path class="cls-1" d="M340.82,368.73s-7.89,0,4.95,9.82A81.12,81.12,0,0,0,365,389.34c7.25,2.86,9.9,3.32,8.8.32,0,0,6.47.51-2.91-8.16a62.87,62.87,0,0,0-15.17-10.32C347.2,367,336.31,361.86,340.82,368.73Z"/><path class="cls-1" d="M332.9,389.66s-7.4,2.75,8,7.54a80.65,80.65,0,0,0,21.75,3.56c7.79.22,10.44-.26,8.37-2.71,0,0,6.26-1.73-5.52-6.67a62.81,62.81,0,0,0-17.79-4.51C338.31,385.89,326.31,384.75,332.9,389.66Z"/><path class="cls-1" d="M332.61,412.05s-6,5.11,10.11,4.34a81.1,81.1,0,0,0,21.65-4.09c7.4-2.47,9.73-3.82,6.95-5.41,0,0,5.29-3.77-7.47-4.38a62.71,62.71,0,0,0-18.26,1.84C336.41,406.65,324.74,409.68,332.61,412.05Z"/><path class="cls-1" d="M340,433.18s-3.9,6.85,11,.62a80.44,80.44,0,0,0,18.95-11.25c6.11-4.85,7.83-6.91,4.68-7.46,0,0,3.68-5.35-8.52-1.56a62.8,62.8,0,0,0-16.53,8C341.72,426.8,331.79,433.65,340,433.18Z"/><path class="cls-1" d="M354.17,450.5s-1.32,7.78,10.53-3.17a80.59,80.59,0,0,0,14-17.05c4.08-6.64,5-9.17,1.84-8.61,0,0,1.63-6.28-8.54,1.45a63.09,63.09,0,0,0-12.8,13.15C353.6,443.93,346.62,453.76,354.17,450.5Z"/><path class="cls-1" d="M373.41,461.94s1.42,7.77,8.81-6.58a80.75,80.75,0,0,0,7.29-20.8c1.56-7.64,1.55-10.33-1.22-8.72,0,0-.61-6.46-7.53,4.28a63,63,0,0,0-7.52,16.74C370.63,456,367.43,467.58,373.41,461.94Z"/><path class="cls-1" d="M395.4,466.11s4,6.81,6-9.2a80.54,80.54,0,0,0-.26-22c-1.15-7.71-2.08-10.23-4.13-7.77,0,0-2.79-5.87-5.61,6.59a62.87,62.87,0,0,0-1.35,18.3C390.74,461.44,391.71,473.45,395.4,466.11Z"/><path class="cls-1" d="M417.49,462.5s6.08,5,2.52-10.7a80.57,80.57,0,0,0-7.78-20.62c-3.71-6.85-5.45-8.91-6.54-5.9,0,0-4.63-4.55-3,8.12a63.2,63.2,0,0,0,5,17.66C411.52,459.7,416.54,470.67,417.49,462.5Z"/><path class="cls-1" d="M437,451.56s7.43,2.65-1.3-10.93a80.66,80.66,0,0,0-14.36-16.7c-5.83-5.18-8.17-6.51-8.16-3.31,0,0-5.91-2.7-.06,8.66a63.05,63.05,0,0,0,10.73,14.89C430.45,451,438.91,459.56,437,451.56Z"/><path class="cls-1" d="M451.62,434.6s7.9-.05-4.95-9.83A80.82,80.82,0,0,0,427.46,414c-7.25-2.87-9.91-3.33-8.8-.32,0,0-6.47-.51,2.91,8.16a62.77,62.77,0,0,0,15.17,10.32C445.25,436.29,456.14,441.47,451.62,434.6Z"/><path class="cls-1" d="M459.55,413.66s7.4-2.74-8-7.53a80.58,80.58,0,0,0-21.74-3.57c-7.79-.21-10.44.26-8.38,2.71,0,0-6.26,1.73,5.52,6.67a63,63,0,0,0,17.79,4.51C454.14,417.44,466.14,418.57,459.55,413.66Z"/><path class="cls-1" d="M459.83,391.28s6-5.11-10.11-4.34A80.32,80.32,0,0,0,428.07,391c-7.39,2.46-9.72,3.82-6.94,5.41,0,0-5.29,3.77,7.47,4.38A63.13,63.13,0,0,0,446.86,399C456,396.68,467.71,393.64,459.83,391.28Z"/><path class="cls-1" d="M452.44,370.15s3.91-6.86-11-.62a80.64,80.64,0,0,0-18.95,11.25c-6.1,4.84-7.83,6.91-4.67,7.45,0,0-3.68,5.35,8.52,1.57a63.05,63.05,0,0,0,16.52-8C450.73,376.52,460.65,369.67,452.44,370.15Z"/><path class="cls-1" d="M438.28,352.82S439.6,345,427.74,356a81.15,81.15,0,0,0-14,17.05c-4.08,6.65-5,9.18-1.84,8.61,0,0-1.63,6.29,8.54-1.44a62.88,62.88,0,0,0,12.8-13.16C438.84,359.4,445.83,349.57,438.28,352.82Z"/><path class="cls-1" d="M419,341.38s-1.42-7.76-8.82,6.59a80.66,80.66,0,0,0-7.28,20.79c-1.57,7.64-1.56,10.33,1.21,8.72,0,0,.62,6.47,7.53-4.28a62.7,62.7,0,0,0,7.53-16.73C421.81,347.37,425,335.74,419,341.38Z"/></svg>