<svg id="Layer_4" data-name="Layer 4" xmlns="http://www.w3.org/2000/svg" viewBox="0 0 800 800"><defs>
<style>.cls-1{fill:#f3aabd;}</style></defs>
<path class="cls-1" d="M399,287s-14-12.89-21.15,17.41a83.51,83.51,0,0,0,.93,41.71c4,14.6,7.27,19.38,14.47,14.72,0,0,9.79,11.1,19.69-12.48a66.4,66.4,0,0,0,4.74-34.64C415.33,295.82,412,273.07,399,287Z"/>
<path class="cls-1" d="M349.16,296.51s-18-6.09-12.24,24.51a83.32,83.32,0,0,0,17.82,37.72c9.6,11.71,14.52,14.75,19.2,7.57,0,0,13.46,6.15,12.9-19.42a66.31,66.31,0,0,0-9.75-33.57C367.69,297.94,355.34,278.54,349.16,296.51Z"/>
<path class="cls-1" d="M307.51,325.48s-18.94,1.77-1.21,27.37a83.35,83.35,0,0,0,31.62,27.22c13.53,6.79,19.26,7.57,20.62-.9,0,0,14.8.15,3.89-23a66.37,66.37,0,0,0-22.57-26.71C325,319.26,305.84,306.55,307.51,325.48Z"/><path class="cls-1" d="M281.25,368.89s-16.59,9.33,10,25.5a83.36,83.36,0,0,0,40,12c15.12.7,20.68-.92,18.47-9.2,0,0,13.58-5.89-5.79-22.59a66.43,66.43,0,0,0-31.48-15.21C294.71,356.09,272,352.28,281.25,368.89Z"/>
<path class="cls-1" d="M274.91,419.23s-11.36,15.26,19.53,19.22a83.35,83.35,0,0,0,41.38-5.29c14.1-5.51,18.52-9.25,13.13-15.92,0,0,10-10.9-14.48-18.28a66.29,66.29,0,0,0-34.94-1.09C282,402.06,259.73,407.8,274.91,419.23Z"/>
<path class="cls-1" d="M289.6,467.8s-4.17,18.56,25.65,9.61a83.43,83.43,0,0,0,35.66-21.66c10.63-10.77,13.15-16,5.51-19.89,0,0,4.72-14-20.65-10.81a66.22,66.22,0,0,0-32.37,13.22C289.09,449.22,271.08,463.53,289.6,467.8Z"/>
<path class="cls-1" d="M322.76,506.19s3.75,18.65,27.35-1.65a83.49,83.49,0,0,0,23.77-34.3c5.33-14.16,5.51-19.95-3.05-20.41,0,0-1.4-14.73-23.27-1.47a66.29,66.29,0,0,0-24.2,25.24C314.75,489.43,304.11,509.83,322.76,506.19Z"/>
<path class="cls-1" d="M368.68,527.77s11,15.52,24.31-12.63a83.34,83.34,0,0,0,7.76-41c-.88-15.12-3.08-20.47-11.08-17.41,0,0-7.28-12.89-21.86,8.12A66.25,66.25,0,0,0,356,497.76C354.54,515.72,353.12,538.68,368.68,527.77Z"/>
<path class="cls-1" d="M419.41,528.81s16.36,9.7,17.07-21.43a83.35,83.35,0,0,0-9.59-40.6c-6.95-13.45-11.13-17.45-17.2-11.39,0,0-11.89-8.82-16.67,16.3a66.35,66.35,0,0,0,2.57,34.87C401.59,523.56,409.63,545.11,419.41,528.81Z"/>
<path class="cls-1" d="M466.17,509.13s18.9,2.21,6.88-26.52a83.36,83.36,0,0,0-25.27-33.2C436,440,430.51,438,427.42,446c0,0-14.44-3.23-8.58,21.67a66.31,66.31,0,0,0,16.52,30.81C447.75,511.58,463.87,528,466.17,509.13Z"/>
<path class="cls-1" d="M500.89,472.13s18.16-5.67-4.51-27a83.39,83.39,0,0,0-36.58-20c-14.65-3.83-20.42-3.4-20,5.16,0,0-14.5,2.94,1,23.3a66.36,66.36,0,0,0,27.63,21.42C485.06,481.86,506.45,490.3,500.89,472.13Z"/>
<path class="cls-1" d="M517.55,424.21s14.29-12.57-15.1-22.86a83.35,83.35,0,0,0-41.58-3.43c-14.94,2.46-20,5.2-16.16,12.84,0,0-12.06,8.59,10.36,20.89A66.4,66.4,0,0,0,489,440C507.05,439.53,530,438.54,517.55,424.21Z"/>
<path class="cls-1" d="M513.28,373.65s7.94-17.29-23.09-14.74a83.43,83.43,0,0,0-39.38,13.78c-12.65,8.32-16.19,12.9-9.53,18.31,0,0-7.53,12.74,18,14.86a66.34,66.34,0,0,0,34.41-6.19C509.92,391.92,530.51,381.67,513.28,373.65Z"/>
<path class="cls-1" d="M488.82,329.2s.22-19-27.09-4.07a83.37,83.37,0,0,0-30.37,28.6c-8.17,12.75-9.54,18.37-1.27,20.6,0,0-1.69,14.71,22.46,6.28A66.28,66.28,0,0,0,481.46,361C493.18,347.26,507.82,329.52,488.82,329.2Z"/>
<path class="cls-1" d="M448.4,298.54s-7.54-17.47-26.41,7.31a83.28,83.28,0,0,0-16.11,38.48c-2.28,15-1.25,20.66,7.22,19.33,0,0,4.44,14.13,23.07-3.4a66.35,66.35,0,0,0,18.42-29.72C459.72,313.27,465.88,291.11,448.4,298.54Z"/>
</svg>