<svg id="Layer_6" data-name="Layer 6" xmlns="http://www.w3.org/2000/svg" viewBox="0 0 800 800"><defs><style>.cls-1{fill:#fdee9d;}.cls-2{fill:#cec254;}</style></defs><path class="cls-1" d="M390.37,368.46s-2.75-3.16-2.24,5.39a42.81,42.81,0,0,0,2.3,11.46c1.35,3.91,2.08,5.13,2.91,3.65,0,0,2,2.78,2.28-4a33.29,33.29,0,0,0-1.09-9.68C393.25,370.44,391.57,364.26,390.37,368.46Z"/><path class="cls-1" d="M379.2,372.51s-3.66-2-.26,5.83a42.67,42.67,0,0,0,6.08,10c2.61,3.21,3.72,4.11,4,2.43,0,0,2.86,1.92.78-4.52a33.38,33.38,0,0,0-4.34-8.72C382.59,373.38,378.9,368.16,379.2,372.51Z"/><path class="cls-1" d="M370.1,380.13s-4.14-.65,1.74,5.57A43,43,0,0,0,381,393c3.54,2.12,4.89,2.59,4.57.92,0,0,3.35.83-.82-4.52a33.5,33.5,0,0,0-7.05-6.71C373.58,379.79,368.32,376.15,370.1,380.13Z"/><path class="cls-1" d="M364.15,390.41s-4.11.8,3.54,4.63a42.6,42.6,0,0,0,11.08,3.74c4.06.78,5.49.76,4.62-.7,0,0,3.43-.36-2.32-4a33.43,33.43,0,0,0-8.92-3.89C367.3,388.9,361.12,387.27,364.15,390.41Z"/><path class="cls-1" d="M362.07,402.1s-3.59,2.16,4.92,3.15a42.79,42.79,0,0,0,11.69-.28c4.08-.66,5.42-1.16,4.1-2.24,0,0,3.09-1.52-3.54-2.93a33,33,0,0,0-9.71-.61C364.52,399.6,358.15,400.19,362.07,402.1Z"/><path class="cls-1" d="M364.12,413.8s-2.63,3.26,5.7,1.27a42.81,42.81,0,0,0,10.89-4.26c3.61-2,4.69-2.94,3.08-3.5,0,0,2.39-2.48-4.32-1.55a33.16,33.16,0,0,0-9.34,2.76C365.57,410.61,359.78,413.34,364.12,413.8Z"/><path class="cls-1" d="M370.05,424.09s-1.36,4,5.78-.75a42.85,42.85,0,0,0,8.78-7.73c2.71-3.12,3.4-4.37,1.7-4.35,0,0,1.4-3.15-4.59,0a33.34,33.34,0,0,0-7.83,5.78C370.32,420.6,365.81,425.15,370.05,424.09Z"/><path class="cls-1" d="M379.14,431.74s.07,4.18,5.18-2.69a43.33,43.33,0,0,0,5.6-10.26c1.48-3.87,1.7-5.28.12-4.67,0,0,.23-3.44-4.32,1.59a33.66,33.66,0,0,0-5.38,8.11C378.2,428.36,375.52,434.17,379.14,431.74Z"/><path class="cls-1" d="M390.29,435.81s1.5,3.91,3.95-4.3A42.66,42.66,0,0,0,396,420c.06-4.13-.21-5.54-1.49-4.42,0,0-1-3.31-3.51,3a33.46,33.46,0,0,0-2.28,9.46C388.26,433,387.73,439.34,390.29,435.81Z"/><path class="cls-1" d="M402.17,435.82s2.75,3.16,2.24-5.39a42.81,42.81,0,0,0-2.3-11.46c-1.36-3.91-2.09-5.13-2.92-3.65,0,0-2-2.78-2.28,4A33.65,33.65,0,0,0,398,429C399.28,433.84,401,440,402.17,435.82Z"/><path class="cls-1" d="M413.33,431.77s3.67,2,.26-5.83a42.67,42.67,0,0,0-6.08-10c-2.61-3.21-3.72-4.11-4-2.43,0,0-2.86-1.92-.77,4.53a33.44,33.44,0,0,0,4.33,8.71C409.94,430.9,413.64,436.13,413.33,431.77Z"/><path class="cls-1" d="M422.44,424.15s4.13.65-1.75-5.57a42.9,42.9,0,0,0-9.13-7.3c-3.55-2.12-4.9-2.59-4.58-.92,0,0-3.34-.83.82,4.52a33.55,33.55,0,0,0,7.06,6.71C419,424.49,424.21,428.14,422.44,424.15Z"/><path class="cls-1" d="M428.39,413.87s4.11-.8-3.55-4.63a42.47,42.47,0,0,0-11.08-3.74c-4.06-.78-5.49-.76-4.61.7,0,0-3.43.37,2.31,4a33.49,33.49,0,0,0,8.93,3.89C425.23,415.38,431.42,417,428.39,413.87Z"/><path class="cls-1" d="M430.46,402.18s3.59-2.16-4.92-3.14a42.72,42.72,0,0,0-11.68.27c-4.09.66-5.42,1.16-4.1,2.24,0,0-3.1,1.52,3.53,2.93a33.05,33.05,0,0,0,9.72.61C428,404.68,434.38,404.09,430.46,402.18Z"/><path class="cls-1" d="M428.41,390.48s2.64-3.26-5.69-1.27a42.67,42.67,0,0,0-10.89,4.26c-3.62,2-4.7,2.94-3.09,3.5,0,0-2.39,2.48,4.33,1.55a33.4,33.4,0,0,0,9.33-2.75C427,393.67,432.75,390.94,428.41,390.48Z"/><path class="cls-1" d="M422.49,380.19s1.36-4-5.79.75a43.11,43.11,0,0,0-8.78,7.73c-2.7,3.12-3.4,4.37-1.7,4.35,0,0-1.39,3.15,4.59,0a32.92,32.92,0,0,0,7.84-5.78C422.22,383.68,426.72,379.13,422.49,380.19Z"/><path class="cls-1" d="M413.4,372.54s-.08-4.18-5.18,2.69a43,43,0,0,0-5.61,10.26c-1.47,3.87-1.7,5.28-.11,4.67,0,0-.23,3.44,4.31-1.59a33.08,33.08,0,0,0,5.38-8.11C414.34,375.92,417,370.11,413.4,372.54Z"/><path class="cls-1" d="M402.24,368.47s-1.5-3.91-3.95,4.3a42.65,42.65,0,0,0-1.75,11.56c-.07,4.13.2,5.54,1.49,4.42,0,0,1,3.31,3.5-3a33.13,33.13,0,0,0,2.28-9.46C404.28,371.32,404.81,364.94,402.24,368.47Z"/><path class="cls-2" d="M393.32,385.33S392,383.76,392.2,388a21.45,21.45,0,0,0,1.15,5.72c.68,1.95,1,2.56,1.46,1.82,0,0,1,1.39,1.13-2a16.79,16.79,0,0,0-.54-4.83C394.76,386.32,393.92,383.24,393.32,385.33Z"/><path class="cls-2" d="M387.75,387.35s-1.83-1-.13,2.91a21,21,0,0,0,3,5c1.3,1.61,1.85,2.06,2,1.22,0,0,1.42,1,.38-2.26a16.52,16.52,0,0,0-2.16-4.35C389.44,387.79,387.6,385.18,387.75,387.35Z"/><path class="cls-2" d="M383.21,391.16s-2.07-.33.87,2.78a21.1,21.1,0,0,0,4.56,3.64c1.77,1.06,2.44,1.29,2.28.46,0,0,1.67.41-.41-2.26a16.65,16.65,0,0,0-3.52-3.34C385,391,382.32,389.17,383.21,391.16Z"/><path class="cls-2" d="M380.24,396.29s-2.05.4,1.77,2.31a21.58,21.58,0,0,0,5.53,1.86c2,.39,2.74.38,2.3-.34,0,0,1.71-.19-1.15-2a16.57,16.57,0,0,0-4.46-1.95C381.82,395.53,378.73,394.72,380.24,396.29Z"/><path class="cls-2" d="M379.2,402.12s-1.79,1.08,2.46,1.57a21.48,21.48,0,0,0,5.83-.14c2-.33,2.7-.58,2.05-1.11,0,0,1.54-.76-1.77-1.47a16.78,16.78,0,0,0-4.85-.3C380.43,400.87,377.25,401.17,379.2,402.12Z"/><path class="cls-2" d="M380.23,408s-1.32,1.62,2.84.63a21.13,21.13,0,0,0,5.43-2.12c1.81-1,2.34-1.47,1.54-1.75,0,0,1.19-1.24-2.16-.77a16.38,16.38,0,0,0-4.65,1.37C381,406.37,378.06,407.73,380.23,408Z"/><path class="cls-2" d="M383.18,413.09s-.68,2,2.89-.37a21.48,21.48,0,0,0,4.38-3.86c1.35-1.56,1.7-2.18.85-2.17,0,0,.7-1.57-2.29,0a16.78,16.78,0,0,0-3.91,2.89C383.32,411.35,381.07,413.62,383.18,413.09Z"/><path class="cls-2" d="M387.72,416.91s0,2.09,2.58-1.34a21.42,21.42,0,0,0,2.8-5.12c.74-1.93.85-2.64.06-2.33,0,0,.11-1.72-2.15.79a16.9,16.9,0,0,0-2.69,4C387.25,415.23,385.91,418.12,387.72,416.91Z"/><path class="cls-2" d="M393.29,418.94s.75,1.95,2-2.14a21.73,21.73,0,0,0,.87-5.77c0-2.06-.1-2.76-.74-2.21,0,0-.48-1.65-1.75,1.48A16.71,16.71,0,0,0,392.5,415C392.27,417.52,392,420.7,393.29,418.94Z"/><path class="cls-2" d="M399.21,419s1.37,1.57,1.12-2.69a21.45,21.45,0,0,0-1.15-5.72c-.67-2-1-2.56-1.45-1.82,0,0-1-1.39-1.14,2a16.41,16.41,0,0,0,.55,4.83C397.77,418,398.61,421,399.21,419Z"/><path class="cls-2" d="M404.78,416.93s1.83,1,.13-2.91a20.93,20.93,0,0,0-3-5c-1.3-1.61-1.86-2.06-2-1.22,0,0-1.43-1-.39,2.26a16.83,16.83,0,0,0,2.16,4.35C403.09,416.49,404.93,419.1,404.78,416.93Z"/><path class="cls-2" d="M409.33,413.12s2.06.33-.88-2.78a21.29,21.29,0,0,0-4.55-3.64c-1.77-1.06-2.45-1.29-2.29-.46,0,0-1.67-.41.41,2.26a16.65,16.65,0,0,0,3.52,3.34C407.59,413.29,410.21,415.11,409.33,413.12Z"/><path class="cls-2" d="M412.29,408s2.06-.4-1.77-2.31a21.39,21.39,0,0,0-5.52-1.86c-2-.39-2.74-.38-2.31.34,0,0-1.71.19,1.16,2a16.51,16.51,0,0,0,4.45,1.95C410.72,408.75,413.81,409.56,412.29,408Z"/><path class="cls-2" d="M413.33,402.16s1.79-1.08-2.45-1.57a21.56,21.56,0,0,0-5.84.14c-2,.33-2.7.58-2,1.11,0,0-1.55.76,1.76,1.47a16.8,16.8,0,0,0,4.85.3C412.11,403.41,415.29,403.11,413.33,402.16Z"/><path class="cls-2" d="M412.31,396.32s1.31-1.62-2.84-.63a21.2,21.2,0,0,0-5.44,2.12c-1.8,1-2.34,1.47-1.54,1.75,0,0-1.19,1.24,2.16.77a16.54,16.54,0,0,0,4.66-1.37C411.58,397.91,414.47,396.55,412.31,396.32Z"/><path class="cls-2" d="M409.35,391.19s.68-2-2.89.37a21.48,21.48,0,0,0-4.38,3.86c-1.35,1.56-1.7,2.18-.85,2.17,0,0-.69,1.57,2.3,0a16.73,16.73,0,0,0,3.9-2.89C409.22,392.93,411.46,390.66,409.35,391.19Z"/><path class="cls-2" d="M404.81,387.37s0-2.09-2.58,1.34a21.42,21.42,0,0,0-2.8,5.12c-.73,1.93-.85,2.64-.05,2.33,0,0-.12,1.72,2.15-.79a16.57,16.57,0,0,0,2.68-4.05C405.28,389.06,406.62,386.16,404.81,387.37Z"/><path class="cls-2" d="M399.25,385.34s-.75-1.95-2,2.14a21.35,21.35,0,0,0-.88,5.77c0,2.07.1,2.77.74,2.21,0,0,.48,1.65,1.75-1.48a16.37,16.37,0,0,0,1.14-4.72C400.26,386.76,400.53,383.58,399.25,385.34Z"/></svg>