<svg id="Layer_2" data-name="Layer 2" xmlns="http://www.w3.org/2000/svg" viewBox="0 0 800 800"><defs><style>.cls-1{fill:#e2e1df;}.cls-2{fill:#424242;}.cls-3{fill:#aca9a2;}.cls-4{fill:#cdd2cb;}.cls-5{fill:#909e9f;}.cls-6{fill:#f7f8f3;}.cls-7{fill:#d7dad3;}</style></defs>

<path class="cls-1" d="M312.64,110.82c5.14-33.07,23.31-79,63.57-74.08,31.41,9.52,25.69,8.51,55.27-2.89,42.8-3.35,47.78,52.83,60.74,82.5"/>
<path class="cls-2" d="M313,110.92c2.93-18.72,8.84-38.08,20.2-53.49,5.48-7.43,12.52-13.92,21.12-17.52A41.15,41.15,0,0,1,368,36.81a40.73,40.73,0,0,1,7.57.23,36.33,36.33,0,0,1,5.39,1.53l4.6,1.39c7.13,2.12,14.67,4.67,22.16,3.09a68.3,68.3,0,0,0,11-3.71c2.67-1.06,5.32-2.14,8-3.2,1.49-.59,3-1.25,4.5-1.76a13.85,13.85,0,0,1,4.17-.3,35.1,35.1,0,0,1,22.75,8.26c6.28,5.33,10.75,12.48,14.31,19.83,7.62,15.78,11.29,33,17.49,49.34.64,1.69,1.31,3.37,2,5,.19.44.83.06.64-.38-3.37-7.75-5.79-15.89-8.31-23.93a267.47,267.47,0,0,0-9.07-25.71c-3.29-7.67-7.33-15.22-13.06-21.35a36.16,36.16,0,0,0-20.41-11.3,40.19,40.19,0,0,0-6.67-.54,26.92,26.92,0,0,0-3.24.12,22.69,22.69,0,0,0-4.95,1.82c-4.8,1.9-9.55,4-14.43,5.65a29.26,29.26,0,0,1-9.64,1.91,42.58,42.58,0,0,1-11-1.86c-2.78-.74-5.53-1.57-8.27-2.4-3-.92-6.09-2.14-9.28-2.4a43.69,43.69,0,0,0-14.5,1.14c-8.88,2.26-16.59,7.55-22.72,14.26C330.55,58.68,325.72,67.19,322,76a144,144,0,0,0-8.52,28.08q-.66,3.3-1.18,6.63c-.07.48.65.68.73.2Z"/>
<path class="cls-3" d="M399.76,168.18l33.45-9.05c47,20.37,81.25,0,81.25,0,19.29-9.36,22.83-35.71,38.25-50.61,20.07-23,41.44-49.35,51.66-78.12-.27-11.19-13.16-13.77-18-3.88C561.86,63,560.33,87.9,511.24,91.75c-11,11.57-23.27,18.55-39.91,13.08a322.6,322.6,0,0,0-71.57-4.72h.48a322.6,322.6,0,0,0-71.57,4.72c-16.68,5.46-28.88-1.5-39.91-13.07-49-3.81-50.71-28.91-75.16-65.25-4.72-9.8-17.79-7.39-18,3.89,10.21,28.77,31.58,55.06,51.64,78.13,15.43,14.89,19,41.24,38.26,50.6,0,0,34.29,20.37,81.25,0l33.45,9.05Z"/>
<path class="cls-2" d="M399.86,168.54l29.61-8c1.06-.29,2.71-1.11,3.81-1a12.42,12.42,0,0,1,2.81,1.24q2.54,1,5.13,1.92c2.91,1,5.87,1.91,8.86,2.68a100.17,100.17,0,0,0,30.84,3c11.22-.68,23-3.17,33-8.52a41.44,41.44,0,0,0,13.72-11.45c5.49-7.13,9.23-15.41,13.58-23.24a83.24,83.24,0,0,1,7.8-12c3.26-4.07,7-7.82,10.37-11.81,7.72-9.07,15.23-18.35,22.12-28.07a197.8,197.8,0,0,0,18.41-31c1.14-2.47,2.22-5,3.22-7.49.93-2.35,1.85-4.18,1.34-6.69a9.9,9.9,0,0,0-5.42-7.23,9.28,9.28,0,0,0-8.32.39c-3.41,1.89-5.16,5.82-7.19,9-4.65,7.21-8.87,14.67-13.18,22.08-7.08,12.16-14.8,24.25-27.54,31.1-7.48,4-15.86,6.1-24.23,7.25-1.39.19-2.77.35-4.16.49-.94.1-2.51-.08-3.35.32s-1.51,1.51-2.11,2.11c-1,.94-1.93,1.86-2.94,2.74a42.2,42.2,0,0,1-13.26,8.25A30.71,30.71,0,0,1,477.55,106c-2.88-.44-5.62-1.42-8.48-1.91q-5.11-.87-10.26-1.59a324,324,0,0,0-39.49-3q-9.78-.15-19.56.3a.38.38,0,0,0,0,.75h.48a.38.38,0,0,0,0-.75,324.52,324.52,0,0,0-40.3.68q-9.79.78-19.54,2.15c-3.3.47-6.59,1-9.87,1.55-2.83.49-5.54,1.47-8.4,1.89-10.76,1.57-20.48-2.93-28.39-10-.93-.82-1.83-1.67-2.71-2.54-.64-.62-1.37-1.74-2.17-2.13s-2.4-.2-3.3-.29c-1.58-.16-3.16-.35-4.74-.58a86,86,0,0,1-13.09-2.83,53.29,53.29,0,0,1-19.46-10.47A72.61,72.61,0,0,1,235.2,61.44c-4.22-6.55-7.95-13.39-11.9-20.11-2.31-3.93-4.68-7.82-7.16-11.65-2-3.11-3.69-6.83-7.13-8.6-5.82-3-12.33.76-13.51,7-.46,2.39.36,4.12,1.24,6.35,1,2.63,2.15,5.24,3.34,7.81a169,169,0,0,0,8.34,15.67A271.11,271.11,0,0,0,229,87.24c3.78,4.78,7.67,9.47,11.62,14.1,3.39,4,7.1,7.74,10.37,11.82,11,13.75,15.2,33.55,30.28,43.91,7.55,5.19,16.95,8.1,25.83,9.81A95.39,95.39,0,0,0,334,168.12a102.13,102.13,0,0,0,16.29-2.87q4.5-1.17,8.88-2.72,2.22-.78,4.4-1.65c.86-.34,2.28-1.32,3.18-1.38,1.14-.08,2.85.77,3.94,1.06l8.3,2.25,18,4.86,3.21.87.1-.73h-.48a.38.38,0,0,0,0,.75h.48a.38.38,0,0,0,.1-.74L371.26,160a25.7,25.7,0,0,0-4.27-1.16c-1.34-.1-3.45,1.3-4.76,1.8q-4.61,1.78-9.37,3.17a100.72,100.72,0,0,1-31.59,4c-11.75-.44-24.12-2.9-34.62-8.43a40.61,40.61,0,0,1-13.44-11c-5.68-7.24-9.46-15.75-13.91-23.74a88.09,88.09,0,0,0-7.12-11.08c-3-3.86-6.49-7.33-9.67-11-7.93-9.27-15.65-18.73-22.75-28.65a205,205,0,0,1-18.13-30c-1.3-2.71-2.53-5.46-3.65-8.25s-2.39-5.31-1.49-8.38a8.63,8.63,0,0,1,7.9-6.36c4.51-.15,7,2.95,9.21,6.42,2.43,3.9,5,7.71,7.34,11.65,4,6.66,7.72,13.48,11.79,20.09,7,11.45,15.56,21.59,28.15,27.06,7.8,3.38,16.26,5,24.68,5.87,1.07.1,2.47,0,3.38.63a26.8,26.8,0,0,1,2.68,2.65,60.22,60.22,0,0,0,5.61,4.73A37.59,37.59,0,0,0,309.41,106a31.42,31.42,0,0,0,13.54.63c2.77-.45,5.41-1.38,8.18-1.85,3.15-.54,6.3-1,9.47-1.48a322.44,322.44,0,0,1,40.48-3.12q9.59-.14,19.16.31v-.75h-.48v.75a323.92,323.92,0,0,1,39.9.65q10.3.8,20.53,2.27c2.9.41,5.8.87,8.68,1.36s5.8,1.52,8.79,2c9.33,1.39,18.16-1.61,25.59-7.22q2.44-1.86,4.69-4c.91-.85,1.74-1.82,2.68-2.62,1.3-1.12,2.79-1,4.44-1.16a101.31,101.31,0,0,0,13.54-2.31,58.12,58.12,0,0,0,19.68-8.6,59.26,59.26,0,0,0,13.41-13.55A194.71,194.71,0,0,0,573,49.19c4.3-7.45,8.83-14.71,13.4-22,2.2-3.51,4.8-6.7,9.38-6.43A8.82,8.82,0,0,1,603.71,28c.63,2.86-.88,5.55-2,8.15-1.14,2.78-2.38,5.53-3.7,8.23-2.6,5.34-5.5,10.53-8.61,15.58A289.64,289.64,0,0,1,568,89.81q-5.38,6.66-11,13.15c-3.17,3.69-6.66,7.14-9.6,11-5.42,7.16-9.17,15.37-13.5,23.18s-9.45,15.71-17.33,20.4a74.79,74.79,0,0,1-25.25,8.85,95.3,95.3,0,0,1-28.16.67,104.24,104.24,0,0,1-16.76-3.52q-4.4-1.31-8.66-3c-1.35-.51-3.42-1.93-4.81-1.78a29.66,29.66,0,0,0-4.5,1.22l-8.19,2.21L402.75,167l-3.09.84A.37.37,0,0,0,399.86,168.54Z"/>
<path class="cls-4" d="M403.88,163.77c30.69-23.67,80.29,14.3,112.42-7.37,19.5-13.15,21.65-41.73,38.17-58.49C566.2,88,578.58,79.27,586.38,65.53c26.54-17,2.68,47.61,3.37,58.27-13.71,42.82,31.07,50.16-.27,57.43C569.09,189.86,584,245,567.79,269c-17.61,44.21-56.4-6.54-84.49-10.14-27.87,1.44-52.07,32.57-82.93,19.42h1.8c-30.91,13.12-55-18-82.93-19.43-28,3.65-66.91,54.34-84.49,10.15-21.29-40.05,6.2-82.75-31.75-91.22-4.07-4.94.95-9,4.32-12.45,25.28-13.51-25.19-120.14,8.84-99.79C224,79.29,236.34,88,248.08,97.91c16.51,16.76,18.66,45.34,38.17,58.49C321.12,176.05,369.69,142.67,403.88,163.77Z"/>
<path class="cls-2" d="M404.07,164.09c10.1-7.68,22.72-8.79,35-7.61,13,1.26,25.72,4.64,38.68,6.34,11.77,1.53,24.33,1.71,35.12-3.92,11.94-6.23,18.42-18.21,23.87-30,2.92-6.28,5.66-12.66,9.11-18.67a64.59,64.59,0,0,1,5.79-8.59,56.5,56.5,0,0,1,8.52-8c6.34-5.21,12.74-10.42,18.23-16.53a67.92,67.92,0,0,0,7-9.21,7.65,7.65,0,0,1,3-3.19,17.15,17.15,0,0,1,2.73-1.23c2.32-.77,4.75-.66,6.09,1.63,1.48,2.53,1.43,5.93,1.33,8.76-.3,8.91-2.49,17.79-4.5,26.44-1.65,7.07-3.92,14.28-4.6,21.54a41,41,0,0,1-1.23,5.94,52.33,52.33,0,0,0-1.4,8.62,40.78,40.78,0,0,0,1.51,14.7c2.08,7,6.26,12.6,10.15,18.64,1,1.53,2.44,3.63,1.93,5.57-.64,2.39-4,3.44-6,4.12s-4.17.88-6,1.83a13.87,13.87,0,0,0-4.12,3.34c-2.65,3.12-4.06,7.14-5,11.06-2.65,11-2.46,22.6-3,33.82-.6,11.63-1.22,24.17-6.28,34.88a31.48,31.48,0,0,1-1.65,3.08,45.71,45.71,0,0,0-2.13,4.33,34.89,34.89,0,0,1-5,8,18.39,18.39,0,0,1-12.17,6.7c-10.14,1-20.23-5.13-28.61-10.06-9.44-5.55-18.62-12-28.94-15.86a38.5,38.5,0,0,0-7-1.95c-2.58-.43-5.47.22-8,.76a81.57,81.57,0,0,0-18,6.6c-12.17,5.78-24.2,13.3-37.85,14.86a40,40,0,0,1-20.1-2.95l-.1.73h1.8l-.1-.73A40.19,40.19,0,0,1,382,280.85a65.92,65.92,0,0,1-19.13-5.74c-11.68-5.2-22.73-12.34-35.26-15.39a31.35,31.35,0,0,0-8.37-1.25A25.5,25.5,0,0,0,312.7,260a79.5,79.5,0,0,0-13.55,6.32c-9.65,5.4-18.76,11.87-28.87,16.42-8.43,3.8-18.61,6.21-26.36-.36-4.74-4-6.84-9.58-9.55-14.95a76.5,76.5,0,0,1-6.83-21.06c-2.23-12.57-1.5-25.28-2.17-38-.48-9.23-2-19.36-9.72-25.47a26,26,0,0,0-6.12-3.54,35,35,0,0,0-4-1.38,14.09,14.09,0,0,1-2-.51c-1.28-.59-1.82-2.45-1.75-3.76.18-3.13,3.64-6.62,6.06-8.34a14.44,14.44,0,0,0,2.62-2.19c3.71-4.2,4.38-10.45,4.53-15.81.21-8-.93-16-2.24-23.79-1.44-8.65-3.28-17.24-5-25.84-1.44-7.29-3-14.66-3.44-22.09-.22-3.33-.87-10,2.75-11.92,1.69-.91,3.79-.31,5.45.36a18.48,18.48,0,0,1,1.86.87A6.75,6.75,0,0,1,217.18,68a67.31,67.31,0,0,0,7,9.21c5.28,5.88,11.4,10.92,17.49,15.92a64,64,0,0,1,8.43,7.59,60.12,60.12,0,0,1,6,8.45c6.8,11.43,10.72,24.4,18.21,35.45,3.39,5,7.72,10.07,13.17,12.89a51.57,51.57,0,0,0,17.68,5.26c27,3.29,53.59-9.32,80.58-5.09a48.76,48.76,0,0,1,18,6.45c.41.25.79-.4.38-.65-11.28-6.87-24.52-8-37.42-7-14,1.05-27.7,4.21-41.65,5.53a91.46,91.46,0,0,1-20.39,0c-6.43-.84-13.68-2.61-19-6.44-11.27-8.07-16.61-21.57-22.23-33.72-2.88-6.23-5.91-12.46-9.93-18.05a38.88,38.88,0,0,0-6.55-7.3c-3.09-2.58-6.23-5.11-9.31-7.7C231.14,83.33,224.9,77.63,220,70.8c-1.14-1.59-2.16-3.23-3.18-4.89a4.14,4.14,0,0,0-2-1.55,18.69,18.69,0,0,0-3.43-1.43c-11.16-3.11-7.57,16.17-6.74,21.56,2.64,17.19,7.32,34,9.1,51.38.71,6.91,1.24,14.41-.81,21.16a14.13,14.13,0,0,1-3.94,6.66,13.05,13.05,0,0,1-1.41,1,18.85,18.85,0,0,0-2.85,2.66c-1.88,2-4,4.46-3.61,7.39a5.61,5.61,0,0,0,1.65,3.32,5.46,5.46,0,0,0,1.59.4c.95.24,1.88.52,2.8.84a27,27,0,0,1,7.39,3.75,22.73,22.73,0,0,1,8.07,12c1.54,5.17,1.89,10.62,2.07,16,.22,6.19.15,12.39.4,18.59a118.32,118.32,0,0,0,2.26,19.87,78.11,78.11,0,0,0,2.91,10.31c1.29,3.56,3,6.87,4.54,10.32,3.87,8.86,10.11,17.17,20.65,17.17,9.82,0,19.23-5.64,27.41-10.47,9.5-5.6,18.81-12.19,29.28-15.89a27.91,27.91,0,0,1,6.82-1.74c3.17-.25,6.75.74,9.79,1.57a103,103,0,0,1,18.46,7.52c11.4,5.65,23,12.3,35.95,13.38a40.6,40.6,0,0,0,19.07-3.09c.36-.15.36-.74-.1-.74h-1.8c-.45,0-.46.59-.1.74a40.57,40.57,0,0,0,20.3,3,65,65,0,0,0,18.34-5.33c12.5-5.41,24.24-13.3,37.72-16.16,3.13-.66,6.18-1.13,9.32-.42A44.37,44.37,0,0,1,492.9,262,115,115,0,0,1,508,269.84c9.55,5.68,19,12.32,29.63,15.81a26.88,26.88,0,0,0,13,1.4,19.3,19.3,0,0,0,11.28-6.86,35.4,35.4,0,0,0,4.72-7.49c1.26-2.61,2.68-5.11,3.93-7.72a58.39,58.39,0,0,0,4.58-15.7c2-12.17,1.93-24.56,2.74-36.83A97.54,97.54,0,0,1,580,195.93c1-4.23,2.6-8.67,5.79-11.78s7.25-3.13,11-4.76c1.8-.78,4-1.94,4.38-4,.39-1.91-.78-3.86-1.74-5.42-1.61-2.59-3.48-5-5.1-7.61a42.23,42.23,0,0,1-6.65-27.18,54.68,54.68,0,0,1,2-9.9,20.06,20.06,0,0,0,.54-3.85,93.91,93.91,0,0,1,2-10.1c2.07-9,4.4-18,5.91-27.06a70.79,70.79,0,0,0,1.17-12.06c0-2.57-.21-5.6-1.72-7.78a5,5,0,0,0-5.41-1.9,15.51,15.51,0,0,0-4.58,1.87,5.29,5.29,0,0,0-2.39,2.4,60.34,60.34,0,0,1-3.81,5.58c-5.17,6.76-11.6,12.4-18.13,17.81-3.13,2.59-6.56,5-9.44,7.88a48.81,48.81,0,0,0-6.2,7.84c-7.73,11.73-11.66,25.49-19.3,37.27a40.08,40.08,0,0,1-32.85,19.69c-13.14,1-26.26-2.07-39.09-4.46-12.13-2.25-24.93-4.54-37.2-2a38.7,38.7,0,0,0-15.51,7C403.31,163.73,403.68,164.38,404.07,164.09Z"/>
<path class="cls-5" d="M401.38,271.3c25.9,23.89,55.41-18,82.43-17.65,24.89-2.45,68.33,54.83,80.43,10.93,6.8-17.52,7.09-82.75,22.83-85.59,15.36-2.11,18.18,17.57,15.06,29-7.07,39.45-10,79.94-20.36,118.68-5.77,17.69-15.76,34-19.71,52.14-10.66,48.8,25.92,106.52-6,151-37.61,41.11-104.43,41.4-156.25,35.33h.78c-51.77,6.13-118.66,5.74-156.25-35.32-31.91-44.48,4.66-102.16-6-151-3.94-18.18-13.93-34.45-19.7-52.14C208.24,288,205.35,247.47,198.27,208c-3.11-11.44-.31-31.19,15.06-29,15.65,2.56,16.16,68.56,22.84,85.59,12.16,43.86,55.45-13.3,80.43-10.93C347.49,255.11,369.42,293.9,401.38,271.3Z"/>
<path class="cls-2" d="M401.12,271.57a27.08,27.08,0,0,0,15.25,7.33c5.47.59,11-.7,16.05-2.64,11.8-4.51,22.05-12.2,33.46-17.53,9.37-4.38,19.34-6.45,29.23-2.68,9.58,3.66,18.14,9.77,26.86,15.05,7.46,4.53,16,10,25,10.44s14.15-6.3,16.8-14.06c3-8.7,4.34-17.67,5.58-26.75,1.56-11.44,2.87-22.93,5-34.27A111.79,111.79,0,0,1,578,191.69c1.18-3.49,2.63-7.26,5.2-10,3-3.2,8-3.16,11.74-1.11,5.06,2.77,7.07,9,7.7,14.34.76,6.53-.86,12.68-1.94,19.07-1.67,9.9-3.11,19.84-4.51,29.78-2.75,19.52-5.34,39.07-9.17,58.41-1.88,9.52-3.7,19.33-7,28.47-3.18,8.73-7.19,17.13-10.8,25.69-3.43,8.16-6.51,16.53-8.08,25.28a103.72,103.72,0,0,0-1.38,22.05c1.1,31.31,12.73,62.33,8.47,93.81A72.94,72.94,0,0,1,561.53,520,45.4,45.4,0,0,1,555,530.38a85.14,85.14,0,0,1-7.78,7.41c-11.2,9.54-24.49,16.33-38.42,20.91-28.39,9.31-59.11,10.09-88.68,8-6.79-.48-13.56-1.14-20.33-1.93v.75h.78v-.75c-29.18,3.44-59.18,4.63-88.2-.79-14.35-2.68-28.48-7.07-41.36-14a102.93,102.93,0,0,1-17.87-12.16,83,83,0,0,1-8-7.61c-2.69-3-4.7-6.88-6.45-10.47-14.22-29.2-4.69-63-.32-93.31,2.13-14.77,3.52-29.95.86-44.76-3.24-18-12.69-33.95-18.88-51-3.28-9-5.09-18.69-7-28.1-1.94-9.72-3.55-19.5-5-29.3-2.94-19.49-5.34-39.06-8.6-58.5-1.09-6.48-2.79-12.77-2.12-19.39.56-5.4,2.46-11.67,7.42-14.61,3.6-2.13,8.78-2.41,11.87.7,2.58,2.6,4,6.3,5.21,9.69,3.51,10.17,5,21.06,6.49,31.67s2.6,21.33,4.57,31.89a107.1,107.1,0,0,0,2.9,11.17c1.35,4.45,3.35,9.08,6.91,12.22,6,5.29,14.27,3.5,21,.68,9.44-4,17.91-10,26.66-15.22,7.49-4.49,16.35-10.05,25.44-9.56,13,.69,24.18,7.52,35.17,13.87,10,5.79,21,12,33,10.69a37.11,37.11,0,0,0,17.2-6.93c.39-.28,0-.93-.38-.65-5.81,4-12.41,6.89-19.58,7-6.24.09-12.28-1.79-17.9-4.36-11.37-5.2-21.45-12.94-33.22-17.33-5.16-1.92-10.93-3.36-16.48-3.05a33.93,33.93,0,0,0-11.89,3.34c-9.58,4.3-18.2,10.49-27.23,15.78-7.22,4.22-16.7,10-25.46,8.14-9.13-1.95-12.3-12.62-14.27-20.52-2.49-9.94-3.45-20.29-4.8-30.42-1.5-11.18-2.93-22.48-5.86-33.39a49.58,49.58,0,0,0-4.39-11.68c-1.31-2.32-3.13-4.76-5.77-5.63-4.32-1.42-9.47.31-12.45,3.6-3.44,3.82-4.72,9.24-5,14.24-.42,6.57,1.38,13,2.45,19.4,1.62,9.78,3,19.6,4.41,29.42,2.8,19.89,5.46,39.82,9.48,59.51,2,9.62,4,19.33,7.5,28.51,3.3,8.59,7.3,16.89,10.79,25.41a109.9,109.9,0,0,1,7.47,25.21,111.71,111.71,0,0,1,.75,23.76c-1,16.22-4.38,32.18-6.72,48.24-2.19,15-3.66,30.48-.87,45.54a71.57,71.57,0,0,0,7.54,21.37,41,41,0,0,0,6.4,9.07,92,92,0,0,0,8.31,7.6,115.79,115.79,0,0,0,37,19.68c28.28,9.28,58.88,10.14,88.33,8.07,7-.49,13.94-1.17,20.88-2,.47,0,.5-.75,0-.75h-.78c-.49,0-.46.7,0,.75,29.26,3.41,59.31,4.6,88.4-.82,14.23-2.65,28.25-7,41.05-13.82A104.16,104.16,0,0,0,546.91,539a96.92,96.92,0,0,0,8.05-7.51,41.81,41.81,0,0,0,6.38-9.55c14.86-28.18,6.72-61.15,2.11-90.85C561,415.29,559,399,561.65,383c3-18.1,12.38-34.12,18.71-51.12,3.39-9.11,5.27-18.84,7.17-28.35,2-9.84,3.62-19.75,5.12-29.67,3-19.88,5.44-39.83,8.78-59.65,1.06-6.24,2.65-12.24,2-18.61-.48-4.92-1.94-10.27-5.63-13.79-3-2.87-8.17-4.41-12.15-2.79-2.7,1.11-4.5,3.76-5.81,6.23-4.57,8.68-6.06,19.13-7.59,28.69-1.81,11.31-3,22.7-4.76,34A115.41,115.41,0,0,1,565,261.11c-1.25,4.58-2.69,9.41-5.41,13.35a13.89,13.89,0,0,1-10,6.28c-4.14.42-8.32-.81-12.13-2.34-9.64-3.87-18.25-10-27.11-15.37-7.38-4.43-16.11-9.93-25-9.83-11.91.14-22.15,5.78-32.23,11.58-10.4,6-22,13.8-34.49,13.51-6.44-.15-12.15-3-16.85-7.25C401.29,270.71,400.76,271.24,401.12,271.57Z"/>
<path class="cls-6" d="M405,604.29l-3.4-.17c31.74,5.87,62.29-24.91,90.83-4.53,10.24-.55,11.15-13.46,15.07-20.63,9.12-13.05,29.77-18.53,25.29-37.59,6-31.58.26-73.88-41.52-60.92-34.53,8.45-54.22,61.61-90.8,56.72-35.7,4-55.43-48.52-89.54-56.71-41.66-12.9-47.65,29.28-41.5,60.91C265,560.43,285.58,565.91,294.74,579c3.89,7.17,4.83,20.09,15.06,20.63,28.56-20.39,59.08,10.4,90.83,4.53l-3.4.17Z"/>
<path class="cls-2" d="M405,603.92l-3.4-.18a.38.38,0,0,0-.09.74c15,2.7,29.59-2.51,43.73-6.79s29.27-7.8,42.91-.35c.81.45,1.61.92,2.39,1.42s1.36,1.16,2.22,1.18a8.59,8.59,0,0,0,3.86-1,13.08,13.08,0,0,0,5.37-5.65c2.82-5.15,3.51-11.47,7.31-16s8.93-8.25,13.54-12.17c4.16-3.53,8.28-7.56,10-12.86a18.87,18.87,0,0,0,.7-8.51,16.51,16.51,0,0,1-.39-2.49,19.45,19.45,0,0,1,.4-2.26c.23-1.37.44-2.74.62-4.12a105,105,0,0,0,.9-17.45c-.36-10.23-2.25-21.39-8.63-29.72a24.87,24.87,0,0,0-10.78-8.19,32,32,0,0,0-16-1.33,77.22,77.22,0,0,0-10,2.38,46.5,46.5,0,0,0-7.89,3.1,73.6,73.6,0,0,0-14.58,9.9c-9.66,8.14-18,17.71-27.24,26.26-8.42,7.77-18.17,15.29-29.82,17a34.55,34.55,0,0,1-8.74.14A35.81,35.81,0,0,0,397,537a33.37,33.37,0,0,1-4.24-.23,40.34,40.34,0,0,1-15.83-5.67c-10.66-6.32-19.23-15.67-27.87-24.4s-17.5-17.64-28.53-23.11a45,45,0,0,0-7.93-3.1,78.85,78.85,0,0,0-10.05-2.37,31.84,31.84,0,0,0-16.05,1.37c-9.25,3.58-14.56,12.38-17.09,21.57-3,10.92-2.89,22.67-1.4,33.82.2,1.44.42,2.88.67,4.32a16.79,16.79,0,0,1,.36,2,15.7,15.7,0,0,1-.4,2.61,18.79,18.79,0,0,0,.84,8.71c1.88,5.3,6.08,9.31,10.28,12.85,4.66,3.92,9.7,7.53,13.54,12.31,1.88,2.34,2.79,5.19,3.78,8a48.17,48.17,0,0,0,3.44,8.1,12.4,12.4,0,0,0,5.6,5.38c1,.42,2.7,1.08,3.78.81a10,10,0,0,0,2.14-1.41c.89-.56,1.8-1.08,2.73-1.57A38.85,38.85,0,0,1,336,593.06c15,1.21,28.9,8,43.58,10.87a57.32,57.32,0,0,0,21.17.55c.42-.08.32-.76-.1-.74l-3.4.18a.38.38,0,0,0,0,.75H405a.38.38,0,0,0,0-.75h-7.8v.75l3.4-.18-.1-.74c-15,2.71-29.71-2.68-43.88-7-13.16-4-27.43-7.3-40.54-1.31a37.35,37.35,0,0,0-5,2.73c-.95.62-1.49,1-2.65.85a9.62,9.62,0,0,1-2.25-.69c-2.65-1.2-4.42-3.62-5.71-6.15-2.56-5-3.34-11-7-15.44-3.81-4.61-8.72-8.13-13.26-12-4.3-3.63-8.68-7.77-10.35-13.31a19.18,19.18,0,0,1-.28-9.34,11.3,11.3,0,0,0-.4-4c-.25-1.46-.46-2.92-.64-4.38a103.29,103.29,0,0,1-.75-17.22c.45-10.19,2.51-21.46,9.31-29.47a24,24,0,0,1,11.76-7.61c5.74-1.61,11.87-1.15,17.61.18a59.8,59.8,0,0,1,17,6.42A87.07,87.07,0,0,1,338,497c9.22,8.33,17.38,17.76,26.74,25.94,8.2,7.18,17.77,13.66,28.91,14.68,2.8.25,5.6-.16,8.38.09a35.13,35.13,0,0,0,8.07-.19,41.71,41.71,0,0,0,15-5.42c10.28-5.94,18.64-14.75,26.92-23.11,8.5-8.6,17.16-17.56,27.82-23.51a59.79,59.79,0,0,1,17.26-6.14c5.65-1.16,11.64-1.4,17.18.38,9.68,3.12,15.23,12,17.82,21.4,3,10.83,2.89,22.49,1.44,33.55q-.28,2.18-.66,4.35c-.11.65-.28,1.31-.35,2a8,8,0,0,0,.29,2.21,18.41,18.41,0,0,1-.7,9c-1.9,5.43-6.38,9.46-10.68,13-4.53,3.77-9.39,7.31-13.09,12-3.52,4.44-4.22,10.54-6.88,15.48-1.36,2.51-3.24,4.83-6,5.86a10.08,10.08,0,0,1-2.1.52c-1.09.15-1.87-.68-2.75-1.23a38.17,38.17,0,0,0-5.14-2.71,40.35,40.35,0,0,0-19.89-2.82c-14.5,1.36-28,7.73-42.14,10.65a57.08,57.08,0,0,1-21.71.73l-.1.74,3.4.18C405.52,604.69,405.52,603.94,405,603.92Z"/>
<path class="cls-3" d="M489.37,758a468.38,468.38,0,0,1,.48-135.83c6.51-28.24-10.41-38.35-37.07-33.12-18,2.64-36,5.9-54.1,8.21l-53-8.21c-26.53-5.23-43.64,4.87-37.07,33.12A468.73,468.73,0,0,1,309.12,758"/>
<path class="cls-2" d="M489.73,757.86a467.87,467.87,0,0,1-1.62-119.75q.87-7.59,2-15.16a102.26,102.26,0,0,0,1.47-10.18c.24-5.17-.5-10.56-3.21-15-5.45-9-16.76-10.91-26.46-10.3-3.37.22-6.64.85-10,1.34q-7.44,1.1-14.86,2.29c-9.91,1.57-19.8,3.2-29.73,4.62-2.64.37-5.29.85-7.95,1.08a16.87,16.87,0,0,1-4.06-.42l-3.93-.61-15-2.32-29.92-4.64c-6.33-1-12.53-1.93-19-1.1a26.1,26.1,0,0,0-13.19,5.16,20.25,20.25,0,0,0-6.91,11.69,32.52,32.52,0,0,0-.59,8.52c.19,3.54,1,6.92,1.55,10.41a468.7,468.7,0,0,1,4.93,60,467.38,467.38,0,0,1-2.74,59.5q-.83,7.49-1.88,14.93c-.07.47.65.67.72.2a471.45,471.45,0,0,0,4.65-58.26A467.16,467.16,0,0,0,311.45,641q-.76-7.1-1.76-14.16c-.55-4-1.51-7.92-1.89-11.93-.53-5.45-.13-11.24,2.56-16.12,5.28-9.61,17.19-11.36,27.15-10.57,3.71.29,7.36,1,11,1.59l14.71,2.28,29.68,4.6c2.27.35,4.67,1,7,.73s4.62-.62,6.93-.94q7.32-1.05,14.62-2.21c9.83-1.54,19.64-3.17,29.48-4.63,6.48-1,12.82-2.08,19.4-1.33,4.9.56,9.88,2.11,13.67,5.38a20.24,20.24,0,0,1,6.53,12.48c1.09,7.07-.81,14-1.77,20.91a469.46,469.46,0,0,0-1.54,117q.79,7,1.78,13.91c.07.47.79.27.73-.2Z"/>
<path class="cls-7" d="M402.15,624.26a138.27,138.27,0,0,0,87.53-13.12,9.67,9.67,0,0,1,8.23-.51c8.39,3.69.45,26-.75,33.18A14.25,14.25,0,0,1,487,654.94a225.15,225.15,0,0,1-174.69,0c-14.16-5-12.45-24.35-14.58-36.7-1.64-6.44,6.34-10.52,11.87-7.1C338,626.6,370.77,628.43,402.15,624.26Z"/>
<path class="cls-2" d="M402.06,624.62a139,139,0,0,0,76.4-7.91c3.89-1.58,7.64-3.4,11.41-5.25,3.05-1.49,7.77-1.93,9.95,1.25,1.3,1.89,1.51,4.41,1.52,6.64a47.21,47.21,0,0,1-.95,8.63c-.94,5-2.47,10-3.46,15a14.78,14.78,0,0,1-4.47,8.51,14.51,14.51,0,0,1-4.76,2.81c-1.94.7-3.84,1.53-5.77,2.3a223.08,223.08,0,0,1-25.22,8.25,224.6,224.6,0,0,1-130-4.8q-6.3-2.16-12.45-4.7c-3.07-1.27-5.91-2.46-8.2-5-4-4.36-5.31-10.55-6.11-16.22-.44-3.08-.7-6.17-1-9.26-.14-1.43-.29-2.85-.48-4.27a27.21,27.21,0,0,1-.57-4.19c.08-3.2,2.82-5.49,5.82-6,3.82-.69,7,1.8,10.23,3.38a119.71,119.71,0,0,0,24.3,8.69c16.77,4.08,34.21,4.81,51.37,3.48,4.21-.32,8.4-.77,12.58-1.32.48-.06.48-.82,0-.75-17.94,2.36-36.29,2.83-54.19-.17A127.57,127.57,0,0,1,322,616.57a120.53,120.53,0,0,1-12.54-5.92,9.09,9.09,0,0,0-8-.35,7.06,7.06,0,0,0-4.38,5.86,22,22,0,0,0,.53,4.25c.2,1.49.36,3,.51,4.49.6,6.1,1,12.38,3,18.23,1.86,5.47,5.27,9.91,10.74,12.06,8.5,3.35,17,6.58,25.76,9.1a226.05,226.05,0,0,0,107.26,4.08,221.08,221.08,0,0,0,26.4-7.1q6.52-2.19,12.89-4.78c3.34-1.36,6.79-2.41,9.39-5a15.47,15.47,0,0,0,4.06-8.18c.44-2.31,1.07-4.59,1.64-6.88,1.39-5.62,2.88-11.46,2.8-17.3a12.82,12.82,0,0,0-1.41-6.44c-1.35-2.27-3.93-3.16-6.49-3.09a12.76,12.76,0,0,0-5.47,1.65c-2.08,1.06-4.18,2.07-6.31,3a133.91,133.91,0,0,1-13,5,138.77,138.77,0,0,1-53.84,6.42c-4.47-.35-8.92-.94-13.34-1.73C401.78,623.82,401.58,624.54,402.06,624.62Z"/>
<path class="cls-7" d="M401.8,722.5c19.13,7.56,56.27-9,78-12,16.71-1.76,21.7-16.5,20.46-31.91-.06-3.62-.4-7.78-3.35-9.88s-6.92-1.08-10.35-.06a291.6,291.6,0,0,1-172.08,0c-8.19-3.48-14.54.93-13.7,9.94-1.18,15.42,3.68,30.14,20.46,31.91l50.32,11.86c9.16,2.16,19.18,4.24,27.64.11Z"/>
<path class="cls-2" d="M401.7,722.87c5.31,2.06,11.2,2.21,16.82,1.79a127.51,127.51,0,0,0,20.34-3.55c7.1-1.73,14.13-3.76,21.18-5.69a172,172,0,0,1,18.74-4.37,31,31,0,0,0,9.32-2.45,20,20,0,0,0,6.65-5.29c3.75-4.61,5.39-10.56,5.87-16.4a70.15,70.15,0,0,0-.1-10.25c-.2-3.13-.91-6.67-3.78-8.45-3.1-1.93-7.09-.86-10.32.11-4.46,1.33-8.91,2.64-13.42,3.8a291.62,291.62,0,0,1-112.08,6.48q-13.89-1.9-27.55-5.14c-4.52-1.07-9-2.26-13.48-3.54-2.13-.62-4.25-1.25-6.34-2a13.25,13.25,0,0,0-4.54-.81,8.43,8.43,0,0,0-6.45,2.86,11.33,11.33,0,0,0-2.25,7.92c.08,1.69-.12,3.39-.12,5.08a47,47,0,0,0,.26,4.9,34.58,34.58,0,0,0,2.07,9,21.31,21.31,0,0,0,11.3,12.19c3.4,1.46,7.1,1.8,10.67,2.64l14.75,3.48,29.27,6.9c8.21,1.93,16.92,4.33,25.38,2.6a22.62,22.62,0,0,0,3-.83,23.35,23.35,0,0,1,2.27-1,12.65,12.65,0,0,1,2.61,0,.38.38,0,0,0,0-.75,18.37,18.37,0,0,0-2.57,0,9.88,9.88,0,0,0-1.92.77,21.14,21.14,0,0,1-3,.91,35.23,35.23,0,0,1-12.91.19c-4.28-.61-8.48-1.66-12.69-2.65l-14-3.31-28.06-6.62c-2.19-.51-4.36-1.08-6.58-1.41a25,25,0,0,1-4.75-1.18,19.66,19.66,0,0,1-7.53-4.87c-4.17-4.39-6-10.48-6.6-16.4-.16-1.63-.22-3.27-.22-4.91s.2-3.17.12-4.75c-.15-2.95.51-6.17,2.82-8.2s5.41-2.15,8.19-1.44c2,.51,3.88,1.28,5.83,1.86s4.17,1.2,6.27,1.77q13.09,3.55,26.49,5.87a292.14,292.14,0,0,0,106-1.18q13.21-2.58,26.15-6.39c3.68-1.09,8.23-3.19,12.11-2,4.08,1.28,4.76,5.83,4.89,9.52.22,6.36.29,12.6-2,18.65a20.65,20.65,0,0,1-12,12.4c-2.92,1.08-6,1.31-9,1.85s-5.84,1.19-8.73,1.91c-6.59,1.63-13.11,3.53-19.66,5.31-6.73,1.84-13.49,3.58-20.36,4.81a67.67,67.67,0,0,1-18.56,1.22,28.53,28.53,0,0,1-7.57-1.74C401.45,722,401.25,722.69,401.7,722.87Z"/>
<path class="cls-7" d="M401.8,777.63c25.28,7,52.56-8.62,78-12,19.22-1,26.14-27.54,17.11-41.79-31.08,1.64-63.64,15.33-96.34,13.37a325.85,325.85,0,0,1-86.09-13.43c-20.79-7.79-15.58,29.86-5.65,37,19.37,9.19,42.13,10.63,62.73,16.72C381.9,780.84,392,780.15,401.8,777.63Z"/>
<path class="cls-2" d="M401.7,778c21.21,5.78,42.78-3.53,63.05-8.85A99,99,0,0,1,480.63,766a19.77,19.77,0,0,0,9.26-3.29c5.62-3.8,9.05-10.19,10.48-16.71,1.62-7.43.92-15.75-3.18-22.3a.36.36,0,0,0-.32-.19c-26.25,1.43-51.35,10.52-77.48,13a170.21,170.21,0,0,1-19.82.39q-10.32-.24-20.61-1.14a323.21,323.21,0,0,1-41.17-6.27q-10.1-2.2-20-5c-3.33-.95-6.79-2.53-10.32-1.83-5.15,1-7.06,6.48-7.56,11.1a40.12,40.12,0,0,0,2.74,18.51,24.87,24.87,0,0,0,3.9,7,8.4,8.4,0,0,0,3.06,2.42c2.73,1.25,5.52,2.36,8.36,3.35,11.95,4.17,24.48,6.27,36.83,8.88,6.25,1.32,12.37,2.94,18.52,4.63a50.67,50.67,0,0,0,19.5,1.29,72.29,72.29,0,0,0,9.1-1.74c.47-.11.27-.84-.2-.72-9.26,2.35-18.91,3-28.2.45-4.3-1.18-8.56-2.41-12.91-3.41s-8.65-1.86-13-2.74a256.28,256.28,0,0,1-25.95-6.2c-2.07-.65-4.14-1.36-6.17-2.13a47.41,47.41,0,0,1-6.31-2.68,10.74,10.74,0,0,1-3.44-3.77,35.45,35.45,0,0,1-4.45-11.95,33.91,33.91,0,0,1-.35-13.16c.66-3.32,2.24-6.92,5.67-8.12a10,10,0,0,1,5.77,0c4.07,1,8.07,2.4,12.14,3.46a326,326,0,0,0,56.35,9.6q7.19.58,14.38.85c4.67.17,9.35.41,14,.32a173.19,173.19,0,0,0,27.15-3c18.11-3.24,35.95-8.29,54.29-10.11,1.1-.11,2.2-.2,3.3-.28.73-.06,2.3-.45,2.8.06a11.83,11.83,0,0,1,1.77,3.66,28.9,28.9,0,0,1,1.74,8.05,32.8,32.8,0,0,1-3.12,16.64c-2.4,4.91-6.28,9.18-11.45,11.18-2.94,1.14-6.06,1.22-9.13,1.74-4.14.69-8.23,1.64-12.28,2.71-16.42,4.33-32.93,11-50.17,10.56a51.49,51.49,0,0,1-12.28-1.76A.37.37,0,0,0,401.7,778Z"/>
</svg>